<?xml version="1.0" encoding="utf-8"?>
<!-- Generator: Adobe Illustrator 15.0.0, SVG Export Plug-In . SVG Version: 6.00 Build 0)  -->
<!DOCTYPE svg PUBLIC "-//W3C//DTD SVG 1.1//EN" "http://www.w3.org/Graphics/SVG/1.1/DTD/svg11.dtd">
<svg version="1.1" id="Layer_1" xmlns="http://www.w3.org/2000/svg" xmlns:xlink="http://www.w3.org/1999/xlink" x="0px" y="0px"
	 width="500px" height="500px" viewBox="0 0 500 500" enable-background="new 0 0 500 500" xml:space="preserve">
<g>
	<g>
		<text transform="matrix(1 0 0 1.045 23.6118 462.0234)" fill="#691551" font-family="'Calibri'" font-size="108.5113">Mi</text>
	</g>
	<g>
		<text transform="matrix(1 0 0 1.045 141.2896 462.0234)" fill="#691551" font-family="'Calibri'" font-size="108.5113">c</text>
	</g>
	<g>
		<text transform="matrix(1 0 0 1.045 186.2729 462.0234)" fill="#691551" font-family="'Calibri'" font-size="108.5113">or</text>
	</g>
	<g>
		<text transform="matrix(1 0 0 1.045 281.3262 462.0234)" fill="#691551" font-family="'Calibri'" font-size="108.5113">T</text>
	</g>
	<g>
		<text transform="matrix(1 0 0 1.045 324.5615 462.0234)" fill="#691551" font-family="'Calibri'" font-size="108.5113">ech</text>
	</g>
</g>
<path fill="#460E36" d="M476.062,351.632c0,10.696-11.787,19.368-26.327,19.368H54.389c-14.54,0-26.327-8.672-26.327-19.368V60.368
	C28.062,49.671,39.849,41,54.389,41h395.346c14.54,0,26.327,8.671,26.327,19.368V351.632z"/>
<g>
	<g>
		<text transform="matrix(1.3593 0 0 1 29.7983 332.8516)" fill="#FFFFFF" font-family="'Calibri'" font-size="380.3604">M</text>
	</g>
</g>
</svg>
