<?xml version="1.0" standalone="no"?>
<!DOCTYPE svg PUBLIC "-//W3C//DTD SVG 20010904//EN"
 "http://www.w3.org/TR/2001/REC-SVG-20010904/DTD/svg10.dtd">
<svg version="1.0" xmlns="http://www.w3.org/2000/svg"
 width="1924.000000pt" height="1924.000000pt" viewBox="0 0 1924.000000 1924.000000"
 preserveAspectRatio="xMidYMid meet">
<metadata>
Created by potrace 1.11, written by Peter Selinger 2001-2013
</metadata>
<g transform="translate(0.000000,1924.000000) scale(0.100000,-0.100000)"
fill="#000000" stroke="none">
<path d="M1239 19016 c-2 -2 -31 -6 -64 -10 -75 -7 -126 -15 -145 -22 -8 -3
-26 -8 -40 -10 -50 -9 -197 -67 -270 -106 -104 -56 -163 -100 -246 -184 -84
-84 -146 -184 -182 -291 l-25 -78 -1 -6160 c0 -5115 2 -6169 13 -6215 53 -216
223 -410 469 -534 85 -43 250 -98 332 -111 19 -3 46 -7 60 -10 14 -2 50 -7 80
-11 72 -8 16675 -8 16759 1 345 34 641 183 820 413 51 67 97 165 118 252 13
58 15 718 15 6200 0 4780 -2 6149 -12 6195 -14 71 -43 141 -84 210 -39 64 -49
77 -118 146 -142 142 -339 244 -586 301 l-97 23 -8396 2 c-4617 2 -8397 1
-8400 -1z"/>
<path d="M17163 4676 c-17 -8 -35 -23 -40 -33 -5 -10 -8 -716 -7 -1570 0
-1208 3 -1555 13 -1567 22 -27 71 -35 186 -33 97 2 118 5 141 22 l27 21 1 741
1 741 54 63 c203 239 364 337 533 325 35 -3 78 -10 96 -15 101 -30 192 -120
235 -232 57 -147 60 -181 60 -949 0 -366 3 -672 8 -681 13 -25 83 -40 181 -38
108 2 154 13 168 39 13 25 12 1426 -1 1520 -15 105 -16 112 -34 185 -9 39 -36
108 -58 155 -33 68 -57 101 -122 165 -137 136 -274 186 -495 181 -103 -3 -137
-8 -197 -29 -69 -24 -190 -87 -216 -111 -7 -6 -28 -23 -49 -38 -20 -15 -56
-47 -81 -70 -24 -24 -53 -51 -64 -61 -20 -17 -20 -13 -20 607 0 480 -2 628
-12 640 -21 25 -63 33 -171 35 -71 0 -115 -4 -137 -13z"/>
<path d="M4344 4525 c-75 -28 -104 -97 -98 -240 5 -150 53 -200 196 -204 115
-3 156 7 199 50 43 43 53 85 52 207 -2 88 -27 148 -75 176 -44 26 -214 33
-274 11z"/>
<path d="M630 4460 c-81 -6 -129 -33 -154 -85 -18 -39 -19 -87 -19 -1447 0
-1045 3 -1411 11 -1421 19 -23 82 -36 175 -35 100 0 157 12 172 37 6 10 12
475 15 1314 l5 1298 124 -333 c68 -183 155 -416 193 -518 38 -102 82 -219 97
-260 15 -41 98 -264 185 -495 86 -231 166 -445 177 -475 12 -30 27 -71 34 -90
18 -45 51 -133 109 -290 57 -152 64 -163 112 -178 59 -18 243 -11 275 11 20
13 46 69 119 255 51 130 130 332 175 447 45 116 125 320 178 455 53 135 121
310 152 390 31 80 97 249 146 375 50 127 96 244 103 260 13 29 89 225 91 235
1 3 6 16 12 30 6 14 25 62 43 108 17 45 32 82 33 82 1 0 2 -586 2 -1302 0
-1145 2 -1304 15 -1320 42 -52 306 -50 343 2 9 14 12 331 12 1426 -1 1272 -2
1412 -17 1439 -20 38 -45 61 -83 75 -34 13 -320 17 -375 5 -72 -15 -120 -53
-165 -130 -13 -22 -151 -359 -307 -750 -157 -390 -288 -719 -293 -730 -5 -11
-9 -22 -10 -25 -1 -3 -6 -16 -12 -30 -6 -14 -32 -79 -58 -145 -26 -66 -51
-129 -56 -140 -15 -33 -110 -269 -113 -280 -1 -5 -9 -26 -18 -45 -8 -19 -21
-52 -28 -73 -15 -40 -27 -47 -37 -19 -3 9 -30 80 -60 157 -30 77 -55 145 -56
150 -3 11 -43 117 -58 150 -5 11 -76 198 -159 415 -83 217 -155 404 -160 415
-4 11 -34 88 -65 170 -32 83 -77 202 -102 265 -25 63 -76 196 -113 295 -80
209 -88 227 -132 273 -39 42 -95 68 -163 77 -67 9 -215 11 -295 5z"/>
<path d="M10936 4460 c-58 -7 -76 -37 -81 -139 -5 -88 7 -154 32 -183 15 -17
48 -18 430 -18 l413 0 0 -1305 0 -1304 33 -18 c67 -35 305 -27 337 12 9 11 12
336 12 1315 l0 1300 413 0 c459 0 435 -4 455 68 22 79 6 236 -26 263 -11 9
-262 12 -997 13 -540 1 -1000 -1 -1021 -4z"/>
<path d="M7888 3709 c-360 -51 -632 -280 -753 -634 -20 -60 -19 -56 -44 -175
-10 -52 -22 -125 -25 -161 -19 -197 -2 -445 39 -604 78 -300 227 -493 466
-604 144 -67 236 -85 439 -85 181 -1 217 2 322 30 145 37 286 116 395 222 138
134 232 316 282 545 56 258 48 539 -24 830 -11 46 -50 138 -87 207 -124 232
-329 376 -604 423 -87 16 -317 19 -406 6z m370 -339 c170 -57 290 -192 350
-395 12 -38 24 -88 26 -110 3 -22 8 -51 12 -65 10 -44 12 -342 3 -416 -43
-338 -206 -553 -460 -610 -57 -12 -235 -11 -293 3 -97 22 -184 70 -251 138
-142 143 -205 362 -199 700 3 235 47 404 141 547 76 115 189 193 323 221 94
20 268 14 348 -13z"/>
<path d="M10327 3705 c-111 -31 -242 -142 -355 -301 -34 -47 -62 -83 -62 -78
-1 5 -1 76 -2 157 -1 188 0 187 -120 194 -98 6 -164 -2 -192 -22 -18 -14 -19
-45 -19 -1073 0 -582 3 -1065 8 -1071 16 -27 72 -40 175 -39 104 0 159 12 175
39 5 6 8 321 8 698 l-1 686 36 60 c106 179 233 324 325 372 72 38 179 38 288
0 41 -15 86 -27 98 -27 38 0 50 48 48 197 -2 129 -3 133 -28 159 -52 52 -272
80 -382 49z"/>
<path d="M13648 3715 c-2 -2 -24 -6 -50 -9 -166 -22 -355 -122 -479 -252 -227
-240 -322 -597 -286 -1082 4 -51 9 -96 11 -100 2 -4 7 -28 11 -52 7 -53 40
-175 61 -228 107 -268 304 -444 573 -513 116 -30 162 -34 351 -33 163 0 203 4
358 38 88 19 189 53 258 86 70 34 84 45 96 76 19 46 23 174 8 220 -18 55 -43
54 -188 -4 -111 -45 -217 -77 -317 -98 -53 -10 -314 -12 -353 -2 -176 46 -227
71 -307 152 -113 114 -165 255 -181 492 l-7 94 669 0 c629 0 671 1 704 18 58
31 72 73 71 215 -1 118 -3 141 -16 237 -38 281 -183 517 -390 635 -122 70
-172 86 -315 105 -65 9 -274 12 -282 5z m290 -319 c62 -22 114 -48 142 -71
129 -105 197 -266 204 -486 l2 -56 -537 0 -538 0 1 21 c0 12 5 50 10 86 41
270 203 468 422 515 76 16 236 11 294 -9z"/>
<path d="M5960 3703 c-185 -29 -350 -107 -470 -224 -133 -129 -238 -332 -276
-534 -2 -11 -6 -31 -9 -45 -4 -25 -8 -50 -21 -160 -3 -30 -6 -116 -6 -190 0
-136 8 -240 27 -340 68 -363 236 -598 505 -707 116 -47 187 -58 360 -58 138 1
166 4 254 29 54 15 106 31 115 35 9 5 30 15 46 22 49 21 148 81 175 106 14 13
27 23 31 23 3 0 16 19 29 42 21 38 24 56 24 153 0 77 -4 119 -14 140 -26 51
-53 45 -165 -39 -98 -74 -220 -142 -299 -166 -61 -19 -213 -21 -286 -4 -178
41 -299 167 -369 383 -11 35 -24 84 -27 110 -3 25 -10 69 -14 96 -12 76 -9
341 5 436 30 196 88 339 177 430 67 69 98 90 173 118 73 28 220 36 312 17 101
-21 253 -101 333 -174 36 -33 78 -54 102 -50 41 6 60 49 63 141 6 148 -18 195
-138 277 -133 91 -307 139 -496 138 -64 -1 -127 -3 -141 -5z"/>
<path d="M15855 3704 c-126 -27 -171 -38 -179 -46 -6 -4 -17 -8 -25 -8 -20 0
-120 -52 -180 -93 -180 -123 -332 -387 -375 -652 -21 -127 -25 -188 -27 -350
-5 -635 246 -1024 711 -1103 78 -14 334 -6 399 12 154 42 255 87 351 158 89
65 104 99 104 233 -1 199 -28 214 -179 101 -176 -133 -276 -176 -425 -182
-225 -9 -389 85 -482 277 -44 93 -64 163 -88 319 -10 59 -6 395 4 445 4 17 11
55 17 85 57 296 231 473 479 486 165 9 306 -40 477 -166 97 -71 129 -83 157
-54 24 24 31 61 30 166 -1 87 -3 101 -27 137 -54 81 -204 169 -362 212 -60 16
-115 22 -220 24 -77 2 -149 1 -160 -1z"/>
<path d="M4333 3665 c-17 -7 -34 -18 -38 -25 -4 -7 -7 -486 -7 -1066 -1 -798
2 -1057 11 -1068 22 -26 68 -35 180 -34 89 0 115 4 140 19 17 10 31 24 31 31
1 7 1 485 1 1061 1 800 -2 1051 -11 1062 -7 8 -30 20 -52 25 -52 14 -217 11
-255 -5z"/>
</g>
</svg>
