<?xml version="1.0" standalone="no"?>
<!DOCTYPE svg PUBLIC "-//W3C//DTD SVG 20010904//EN"
 "http://www.w3.org/TR/2001/REC-SVG-20010904/DTD/svg10.dtd">
<svg version="1.0" xmlns="http://www.w3.org/2000/svg"
 width="512.000000pt" height="512.000000pt" viewBox="0 0 512.000000 512.000000"
 preserveAspectRatio="xMidYMid meet">
<metadata>
Created by potrace 1.11, written by Peter Selinger 2001-2013
</metadata>
<g transform="translate(0.000000,512.000000) scale(0.100000,-0.100000)"
fill="#000000" stroke="none">
<path d="M2560 4143 l0 -973 -35 -1 c-19 0 -296 0 -615 0 -319 0 -591 0 -605
0 l-25 1 0 483 0 484 -640 0 -640 0 1 -1781 c1 -1487 3 -1792 15 -1846 62
-290 318 -502 607 -503 102 -1 163 8 230 34 156 59 270 158 350 301 31 55 67
166 67 205 0 13 5 23 10 23 6 0 10 -13 10 -28 0 -46 38 -152 80 -222 43 -71
102 -139 166 -188 41 -32 151 -90 182 -97 157 -36 255 -39 357 -11 33 10 65
18 70 19 26 6 125 63 170 99 115 90 211 245 230 373 8 51 24 70 26 31 1 -14 2
-29 3 -33 1 -5 6 -24 10 -43 53 -221 278 -423 512 -457 60 -9 179 -9 219 0
180 42 306 123 407 262 56 77 108 209 108 272 0 45 16 22 27 -40 54 -280 318
-499 606 -500 102 -1 163 8 230 34 197 75 336 221 401 419 l21 65 3 1806 2
1806 -627 1 c-346 0 -634 1 -640 1 -10 1 -13 106 -13 489 l0 488 -640 0 -640
0 0 -973z"/>
</g>
</svg>
